<?xml version="1.0" encoding="utf-8"?>
<!-- Generator: Adobe Illustrator 18.1.1, SVG Export Plug-In . SVG Version: 6.00 Build 0)  -->
<svg version="1.1" id="Layer_1" xmlns="http://www.w3.org/2000/svg" xmlns:xlink="http://www.w3.org/1999/xlink" x="0px" y="0px"
	 width="327px" height="300px" viewBox="0 0 327 300" enable-background="new 0 0 327 300" xml:space="preserve">
<path fill="#FFFFFF" d="M250.1,291.2c-5.1-0.3-10-0.7-15-0.8c-28.2-0.3-48.5-13.1-62.1-37.8c-7.9-14.4-11.2-29.7-13.3-45.6
	c-0.1-1-0.3-2.1,0.1-2.9c6.1-12.8,9.2-27.3,20.3-37.2c3.4-3.1,7.1-6.1,11.2-8.1c13.7-6.6,27.8-12.5,41.5-19.2
	c6.8-3.3,13.2-7.6,19.8-11.6c2.5-1.6,4.9-3.5,7.3-5.2c9.3-6.4,19.3-6,29.4-2.3c10.5,3.8,19.2,18.6,18.7,31.5
	c-0.8,18.8-10,32.7-27.6,38.6c-5.5,1.9-12.4,0.8-18.4-0.2c-4.8-0.8-9.2-3.8-13.9-5.4c-7.7-2.6-18.5,4.7-19.1,12.8
	c-0.3,3.7,1.7,6.1,5.2,7.5c8,3.3,16,6.7,23.8,10.4c8.4,4,14.3,10.4,18,19.1c4,9.4,2.4,18.4-1,27.2c-3.9,10.1-10,18.7-19.5,24.6
	C253.4,288,251.6,289.8,250.1,291.2z M280.6,166.6c0.8,1.1,1.6,2.1,2.4,3.2c0.2-0.2,0.5-0.4,0.7-0.7
	C282.7,168.2,281.6,167.4,280.6,166.6c0-4,0.1-8,0.1-12.1l-0.1,0.1c2.6,3.1,5.3,6.3,7.9,9.4c1.3-2.3,1.5-4.2,1-5.8
	c-1.6-4.7-3-9.6-5.3-14c-2.2-4.2,2.2-5.3,3.2-7.7c-8.2-8.2-17.1-6.5-24.1,4.2c0.6,4.4,6.4,7.1,4.2,12.5c-7.5,3.7-9-5.4-14.5-6.7
	c-6.5,3-13.2,6.1-20.3,9.4c3,4.7,5.4,8.6,7.9,12.6c3.5,0,6.8,0,10.2,0l-0.1-0.1c5.7,3.1,11.2,6.6,17.2,9.2c4.2,1.8,7.1-1,6.5-5.6
	c-0.3-2.2-1.3-4.4-2.1-6.6c-1.2-3.4-2.2-6.7,0-10.7C278.4,156.8,277.1,163.5,280.6,166.6z M202.7,172.5c-13.8,2.1-19,12.7-23.3,22.6
	c2.8,2.5,5.5,4,7.2,6.4c2,3,3.2,6.5,4.7,9.8c1.3,2.9,0.8,5.7-2.3,6.4c-1.4,0.3-4.1-1.7-5.1-3.3c-2.2-3.8-3.7-8.1-5.5-12.2
	c-3.5,15.3-0.4,29.2,7.1,42.1c2.2,3.7,5,7.1,7,10.9c6.6,12.5,17.2,19.2,30.7,21.5c4.5,0.8,9.3,3.9,14.2,0.8
	c-1-7.4-9.6-12.5-5.4-22.4c4.5,6.9,8.4,13,12.4,19c1.9,2.8,3.7,2.2,5.2-0.7c-2.9-7-10.7-12.2-8.5-22c6.7,3.7,7.8,13.5,17.3,14.8
	c-2.4-8.8-10.6-13.9-10.4-24.3c3.2,3,5.4,4.8,7.3,6.9c2.1,2.2,4,4.5,5.9,6.8c0.6-0.4,1.3-0.8,1.9-1.2c-0.8-2.3-1.3-4.7-2.5-6.8
	c-1.3-2.3-3.2-4.2-4.6-6.5c-1.2-1.9-3-4.1-2.8-6c0.2-2.1,2.3-4.1,4.4-7.4c-9.9-4.4-19.1-8.9-28.6-12.8
	c-10.2-4.1-15.3-12.5-11.3-21.9c3.6-8.4,8.5-16.2,13.4-25.3c-1.6-2.4-3.8-5.8-6.2-9.6c-3.1,2.1-5.2,3.6-7.3,5
	c1.8,5.1,4.9,9.7-0.1,15.2c-2.4-4.3-4.4-7.9-6.9-12.4c-3.2,2.6-5.7,4.6-8.2,6.6L202.7,172.5z"/>
<path fill="#FFFFFF" d="M92,187.5c7.7-4.2,10.9-8.3,11.1-14.5c0.1-3.3,0-6.7-0.1-10c-0.2-10.8,3.9-15.2,14.1-17.6
	c13.1-3.2,33.9,0.5,40.4,17.7c6.7,17.5,6.4,26.1-7.7,35.6c-1.7,1.1-3.2,2.4-4.7,3.6c-9.3,7.1-11.3,12.9-8,23.9
	c1.3,4.5,2.9,8.9,4.4,13.3c5.5,15.6-0.5,27.5-9.5,33.8c-11.9,8.3-21.6,9.5-36.5,2.1c-12.1-6-17.6-16.7-21.2-28.8
	C71.1,236,71,225,74.4,214.3c1.5-4.6,4.4-8.8,6.9-13c1.4-2.5,3.3-4.7,6-8.5c-3.6,0.3-5.3,0.4-7.1,0.5c-13.9,1.2-27.1-0.2-38.5-9.3
	c-11.7-9.4-16.7-31.1-8.4-47.8c5.8-11.7,10.7-23.4,12.1-36.6c1.2-10.7,12.1-17,22.5-13.9c16.3,4.9,20.6,8.5,24,29
	c1,6.4,0.6,13.4-0.5,19.9c-1.8,11-1.7,21.7,0.3,32.7C92.8,173.1,92,179.2,92,187.5z M111.7,249.8c2.1-4,4.5-3.9,6.9-0.7
	c2.3,3.1,4.3,6.4,6.6,9.8c5.2-2.7,3.4-5.7,1.1-8.2c-7.8-8.6-2.7-20.4-7.4-29.7c-0.4-0.8,1-2.4,1.2-3.7c1.7-9.1,7.8-17.4,3-28.2
	c4.6,1,7.4,1.6,11.9,2.6c-1.4-4-2.3-6.7-3.1-8.9c2.3-4.1,4.8-7.9,6.5-12.1c1.4-3.5,1.3-8-2.4-9.8c-4.3-2.1-9.4-3.9-14-3.6
	c-4.5,0.4-3.9,5.7-3.5,9.2c0.9,9.3-2.3,17-8.1,23.9c-2.8,3.3-5.9,6.3-8.8,9.4c-4.1,4.4-10,8.1-11.7,13.3c-4.5,13.3-6.7,27.2,2.3,40
	c3,4.2,5.1,9.4,11.2,11c2.3-3.4-3.4-9.2,3.3-10.9c6,1.8,4.6,10.5,13,13.4C116.3,259.8,114,254.8,111.7,249.8z M62,99.7
	c-1.1,2.8-1.9,4-2,5.2c-1.4,13.3-7.9,24.5-13.6,36.1c-1.9,3.8-3,8.1-3.5,12.4c-2,15.5,9.8,28,25.2,27.2c3.8-0.2,7.4-0.3,8.4-5.1
	c1.1-5.3-0.5-8.4-5.5-11c-2-1-3.9-2.3-5.6-3.7c-0.4-0.3,0-1.8,0.1-3.2c3,0,5.7,0,9,0c-0.6-7.1-1.2-13.6-2-21.6
	c0.5-0.3,2.8-1.7,5.9-3.6c-5.2-4.7-8-8.6-2.5-13.2c0.8-0.7,0-3.7-0.5-5.5c-1-3.2-2.3-6.3-3.9-10.7C69.4,102.1,66.1,101,62,99.7z"/>
<path fill="#FFFFFF" d="M210.9,87.1c-6-1.4-12.4-2.9-18.8-4.3c-4.5-1-9-2-13.5-2.8c-11.3-2-16.5,7.7-18.3,15.4
	c-2,8.4-4.1,16.8-7.1,24.8c-3.9,10.2-18.4,16.3-29.7,14.7c-13.5-1.9-20.7-9.5-23.2-22.3c-0.4-2.2-0.7-4.6-0.4-6.8
	c0.9-6.9,2-13.8,3.3-20.6c0.6-2.9,1.5-6,3.3-8.2c9.8-11.7,19.9-23.2,30-34.6c1.5-1.7,3.6-3.1,5.6-4c12.5-5.5,25.1-10.5,39-11.4
	c8.2-0.5,16.2-2.2,24.6,0c13.4,3.5,24.4,10.5,32.6,21.5c9.5,12.7,2.3,31.9-13,36C220.8,85.5,216.2,86.1,210.9,87.1z M212.4,71.8
	c1-0.1,2-0.2,2.9-0.5c12.5-3.9,13.9-9.4,5-18.8c-0.9-1-1.5-2.2-2.5-3.1c-7.8-7.4-17-11.8-28-10.4c-7.6,0.9-15.2,2-22.6,3.8
	c-11.6,2.9-23.1,6.3-30.8,16.7c-5.5,7.5-11.7,14.4-17.2,22c-5.9,8.2-6.5,18-6.5,27.6c0,2.8,1.7,5.7,3.1,8.3c2.6,5.2,8,5.7,12.7,6.8
	c2.4,0.6,5.2-0.9,7.7-1.5c-0.6-8.5-8.3-14.5-3.4-24c3.9,5.6,7.1,10.2,10.5,15.1c4.1-4.9,4.1-8.9,0.6-13.2c-3.6-4.4-7-9-4.4-15.2
	c7.8-0.7,7.6-0.8,8.5-8.3c0.2-1.9,2.2-5.1,3.1-5c5.9,0.5,8.1-2.8,10.2-7.5c1.5-3.5,4.8-4.2,8.3-1.7c1.2,0.9,2.9,1.2,4.1,1.7
	c2.6-2.1,4.7-3.9,7.3-6.1c4.1,7.7,10.7,9.2,18.6,9.9c0-4.7,0-9,0-13.2c0.6-0.2,1.2-0.4,1.7-0.6C205.1,60.4,208.7,66,212.4,71.8z"/>
<path fill="#FFFFFF" d="M157,132.3c-0.3-14.9,12.4-32.3,27.7-36.7c7.2-2,15.1-3.7,22.4-2.8c15.8,2,23.6,21.1,15.2,34.5
	c-8.4,13.3-20.9,21.1-35.2,26.4C171,159.7,157.8,148.7,157,132.3z M175.8,139.9c0.7-0.3,1.4-0.5,2.1-0.8c-0.4-1.1-0.6-2.4-1.2-3.3
	c-1.5-2.1-2.8-4.5,0.1-5.7c1.4-0.6,4.2,0.9,5.7,2.3c1.7,1.5,2.3,4.1,3.9,5.7c1.2,1.2,3.4,1.5,5.1,2.2c0.5-0.6,1-1.2,1.6-1.8
	c-1.6-3.5-3.1-7-4.9-10.5c-1.6-3.2-5.3-6.2-0.6-10.5c4.3,6.9,8.3,13.4,12.3,19.9c0.7-0.3,1.4-0.7,2.1-1c-0.3-9.3-10.4-15.4-10.1-25
	c8.1-1.5,13.7,1.6,17.8,9c0.9-10-2.3-14.9-9.2-15.8c-10.9-1.5-24.6,6.9-27.1,17.4C172,128,170.2,134.8,175.8,139.9z"/>
<path fill="#FFFFFF" d="M81.9,23c15-2.1,22.5,8,24.1,23.9c1.5,15.5-10.9,27.3-26.6,27c-12.2-0.2-25.5-11.9-26-22.8
	C52.7,36.5,66.1,23.2,81.9,23z M90,57.6c-4-7.5-4-7.5,2.3-13.5c-0.1-8.1-6.6-7.6-11.4-8.8c-3.9,2.7-7.5,5-10.9,7.7
	c-5.5,4.3-4.8,10.5,1.4,14.6C73,43.9,76.2,40.9,84.1,45c-2.2,5.4-4.4,10.8-6.8,16.6C83.3,63.4,87.2,62.3,90,57.6z"/>
<path fill="#FFFFFF" d="M41,200.7c16.6,0,25.4,14.8,17.9,29.5c-3.8,7.5-10.1,12.5-16.8,16.5c-9.4,5.6-25.7-5.3-27.1-17.4
	C12.7,209.8,26.4,200,41,200.7z M44.5,230.6c5.1-8.7-3.2-12-6.3-17.4c-9.3,3-13,7.7-11.7,14.8c0.3,1.6,1.9,3.7,3.3,4.1
	c2.6,0.8,4.5-0.7,4.6-3.6c0.1-1.3,0.1-2.7,0.1-4l-0.1,0.1c2.8,2.9,5.6,5.8,8.7,9c0.4-1,0.9-2,1.4-3.1L44.5,230.6z"/>
<path fill="#FFFFFF" d="M284.4,38c1.4,9.7-9.7,19.4-19,18.7c-12-0.9-18.7-6.5-18.4-17.5c0.4-12.9,9.6-22.3,22.3-22
	C276.8,17.3,284.8,22.7,284.4,38z M272.6,36.6c0.1,0.2,0.2,0.5,0.3,0.7c0.1,0.1,0.4,0.1,0.5,0.1C273.2,37.1,272.9,36.8,272.6,36.6
	c-0.7-2.6-1.5-5.1-2.4-8.2c-6.1,2.6-11.3,3.9-11.2,11.6C264,38.8,268.3,37.7,272.6,36.6z"/>
<path fill="#FFFFFF" d="M260,110.2c-11,0.3-16.8-3.8-18.1-12.8c-1.5-9.6,5.8-21.7,14.3-23.8c12-2.9,23.7,9.8,20.9,22.8
	C274.7,107,271.2,109.9,260,110.2z M255.1,88.5c-1.3,2.7-2.5,4.1-2.4,5.5c0.2,2,1.2,4,2,5.9c0.1,0.2,2.4-0.2,2.5-0.5
	c0.2-1.8,0.3-3.6,0-5.3C257,92.6,256.2,91.2,255.1,88.5z"/>
<path fill="#FFFFFF" d="M283,169.8c-0.8-1.1-1.6-2.1-2.4-3.2c0,0,0,0,0,0"/>
<path fill="#FFFFFF" d="M272.6,36.5c0.3,0.3,0.5,0.5,0.8,0.8c-0.2,0-0.4,0-0.5-0.1C272.8,37.1,272.7,36.8,272.6,36.5
	C272.6,36.6,272.6,36.5,272.6,36.5z"/>
<path fill="#FFFFFF" d="M192,182.8c9.1,10,9.3,10.8,5.1,16.6C188.6,193.4,187.5,190.1,192,182.8z"/>
<path fill="#FFFFFF" d="M202.6,172.6c8.5,2.2,10.9,6.5,7.7,14.1c-7.9-4.5-8.7-5.9-7.6-14.2C202.7,172.5,202.6,172.6,202.6,172.6z"/>
<path fill="#FFFFFF" d="M250.7,168.6c-2.8-4.6-5.5-9.3-8.7-14.6c7.7-2.6,9.6,2.4,11.5,6c1.7,3.2,2.2,7.2-3,8.5
	C250.6,168.5,250.7,168.6,250.7,168.6z"/>
<path fill="#FFFFFF" d="M280.7,154.5c-0.3-0.1-0.5-0.2-0.8-0.3c0.2,0.1,0.5,0.3,0.7,0.4C280.6,154.6,280.7,154.5,280.7,154.5z"/>
<path fill="#FFFFFF" d="M73.9,175.5c-6.6,1.9-8.9-1.7-10.4-6.8C69.1,167.6,69.1,167.6,73.9,175.5z"/>
<path fill="#FFFFFF" d="M34.7,224.5c-0.5-0.6-1-1.3-1.4-1.9c0.4,0.7,0.9,1.3,1.3,2C34.5,224.6,34.7,224.5,34.7,224.5z"/>
<path fill="#FFFFFF" d="M44.7,230.5c-0.5-0.7-1.1-1.3-1.6-2c0.5,0.7,1,1.4,1.4,2.1C44.5,230.6,44.7,230.5,44.7,230.5z"/>
</svg>
