<?xml version="1.0" encoding="utf-8"?>
<!-- Generator: Adobe Illustrator 18.1.1, SVG Export Plug-In . SVG Version: 6.00 Build 0)  -->
<svg version="1.1" id="Layer_1" xmlns="http://www.w3.org/2000/svg" xmlns:xlink="http://www.w3.org/1999/xlink" x="0px" y="0px"
	 width="594px" height="612px" viewBox="-102 -106 594 612" enable-background="new -102 -106 594 612" xml:space="preserve">
<path fill="#343B3E" d="M191.7,496.3c-90.1,2.4-240-83-258.7-149.4s-35.8-232.3,0-298.7S94.5-101.1,191.7-101.1
	S415.1-15.8,450.4,48.3s38.2,237.1,0,298.7S281.8,494,191.7,496.3z"/>
<g>
	<g>
		<path fill="#FFFFFF" d="M114,34.5c3.2,0,3.2-5,0-5S110.8,34.5,114,34.5L114,34.5z"/>
	</g>
</g>
<g>
	<g>
		<path fill="#FFFFFF" d="M386,44c12.9,0,12.9-20,0-20S373.1,44,386,44L386,44z"/>
	</g>
</g>
<g>
	<g>
		<path fill="#FFFFFF" d="M168-2c12.9,0,12.9-20,0-20S155.1-2,168-2L168-2z"/>
	</g>
</g>
<g>
	<g>
		<path fill="#FFFFFF" d="M58,332c12.9,0,12.9-20,0-20S45.1,332,58,332L58,332z"/>
	</g>
</g>
<g>
	<g>
		<path fill="#FFFFFF" d="M278,87c6.4,0,6.4-10,0-10S271.6,87,278,87L278,87z"/>
	</g>
</g>
<g>
	<g>
		<path fill="#FFFFFF" d="M296-5c6.4,0,6.4-10,0-10S289.6-5,296-5L296-5z"/>
	</g>
</g>
<g>
	<g>
		<path fill="#FFFFFF" d="M-8,229c6.4,0,6.4-10,0-10S-14.4,229-8,229L-8,229z"/>
	</g>
</g>
<g>
	<g>
		<path fill="#FFFFFF" d="M390,339c6.4,0,6.4-10,0-10S383.6,339,390,339L390,339z"/>
	</g>
</g>
<g>
	<g>
		<path fill="#FFFFFF" d="M140,417c6.4,0,6.4-10,0-10S133.6,417,140,417L140,417z"/>
	</g>
</g>
<g>
	<g>
		<path fill="#FFFFFF" d="M148,300.5c3.2,0,3.2-5,0-5S144.8,300.5,148,300.5L148,300.5z"/>
	</g>
</g>
<g>
	<g>
		<path fill="#FFFFFF" d="M338,296.5c3.2,0,3.2-5,0-5S334.8,296.5,338,296.5L338,296.5z"/>
	</g>
</g>
<g>
	<g>
		<path fill="#FFFFFF" d="M444,270.5c3.2,0,3.2-5,0-5S440.8,270.5,444,270.5L444,270.5z"/>
	</g>
</g>
<g>
	<g>
		<path fill="#FFFFFF" d="M10,18.5c3.2,0,3.2-5,0-5S6.8,18.5,10,18.5L10,18.5z"/>
	</g>
</g>
<g>
	<g>
		<path fill="#FFFFFF" d="M-16,312.5c3.2,0,3.2-5,0-5S-19.2,312.5-16,312.5L-16,312.5z"/>
	</g>
</g>
<g>
	<g>
		<path fill="#FFFFFF" d="M386,145c6.4,0,6.4-10,0-10S379.6,145,386,145L386,145z"/>
	</g>
</g>
<g>
	<g>
		<path fill="#FFFFFF" d="M30,393c6.4,0,6.4-10,0-10C23.6,383,23.6,393,30,393L30,393z"/>
	</g>
</g>
<g>
	<g>
		<path fill="#FFFFFF" d="M302,429c6.4,0,6.4-10,0-10S295.6,429,302,429L302,429z"/>
	</g>
</g>
<g>
	<g>
		<path fill="#FFFFFF" d="M98-43c6.4,0,6.4-10,0-10S91.6-43,98-43L98-43z"/>
	</g>
</g>
<g>
	<g>
		<path fill="#FFFFFF" d="M228-59.5c3.2,0,3.2-5,0-5S224.8-59.5,228-59.5L228-59.5z"/>
	</g>
</g>
<g>
	<g>
		<path fill="#FFFFFF" d="M208,62.5c3.2,0,3.2-5,0-5S204.8,62.5,208,62.5L208,62.5z"/>
	</g>
</g>
<g>
	<g>
		<path fill="#FFFFFF" d="M80,252.5c3.2,0,3.2-5,0-5S76.8,252.5,80,252.5L80,252.5z"/>
	</g>
</g>
<g>
	<g>
		<path fill="#FFFFFF" d="M-36,146.5c3.2,0,3.2-5,0-5C-39.2,141.5-39.2,146.5-36,146.5L-36,146.5z"/>
	</g>
</g>
<g>
	<g>
		<path fill="#FFFFFF" d="M76,81c6.4,0,6.4-10,0-10S69.6,81,76,81L76,81z"/>
	</g>
</g>
</svg>
